<?xml version="1.0" encoding="UTF-8"?>
<svg xmlns="http://www.w3.org/2000/svg" viewBox="0 0 302 295" width="302" height="295">
  <circle cx="155.4" cy="18.0" r="9.8" fill="#ffffff"/>
  <circle cx="116.1" cy="23.9" r="9.8" fill="#ffffff"/>
  <circle cx="190.7" cy="24.9" r="9.8" fill="#ffffff"/>
  <circle cx="77.9" cy="38.6" r="9.2" fill="#ffffff"/>
  <circle cx="139.7" cy="39.6" r="9.8" fill="#ffffff"/>
  <circle cx="173.1" cy="44.5" r="9.7" fill="#ffffff"/>
  <circle cx="225.1" cy="46.5" r="10.8" fill="#ffffff"/>
  <circle cx="105.3" cy="51.4" r="9.5" fill="#ffffff"/>
  <circle cx="201.5" cy="52.3" r="10.4" fill="#ffffff"/>
  <circle cx="156.4" cy="60.2" r="9.3" fill="#ffffff"/>
  <circle cx="126.9" cy="62.2" r="9.2" fill="#ffffff"/>
  <circle cx="48.4" cy="64.1" r="8.9" fill="#ffffff"/>
  <circle cx="74.9" cy="64.1" r="8.9" fill="#ffffff"/>
  <circle cx="255.5" cy="66.1" r="9.3" fill="#ffffff"/>
  <circle cx="141.7" cy="73.9" r="7.8" fill="#ffffff"/>
  <circle cx="191.7" cy="75.9" r="8.5" fill="#ffffff"/>
  <circle cx="99.5" cy="78.8" r="9.2" fill="#ffffff"/>
  <circle cx="215.3" cy="78.8" r="9.3" fill="#ffffff"/>
  <circle cx="119.1" cy="81.8" r="8.0" fill="#ffffff"/>
  <circle cx="174.0" cy="81.8" r="8.1" fill="#ffffff"/>
  <circle cx="156.4" cy="84.7" r="6.3" fill="#ffffff"/>
  <circle cx="74.9" cy="87.7" r="9.0" fill="#ffffff"/>
  <circle cx="131.8" cy="87.7" r="6.7" fill="#ffffff"/>
  <circle cx="244.7" cy="88.7" r="10.4" fill="#ffffff"/>
  <circle cx="49.4" cy="92.6" r="9.8" fill="#ffffff"/>
  <circle cx="116.1" cy="98.5" r="6.3" fill="#ffffff"/>
  <circle cx="100.4" cy="102.4" r="8.5" fill="#ffffff"/>
  <circle cx="194.7" cy="103.4" r="6.6" fill="#ffffff"/>
  <circle cx="24.9" cy="106.3" r="9.0" fill="#ffffff"/>
  <circle cx="218.2" cy="106.3" r="7.8" fill="#ffffff"/>
  <circle cx="273.2" cy="106.3" r="9.5" fill="#ffffff"/>
  <circle cx="79.8" cy="107.3" r="8.6" fill="#ffffff"/>
  <circle cx="56.3" cy="119.1" r="9.8" fill="#ffffff"/>
  <circle cx="239.8" cy="119.1" r="8.5" fill="#ffffff"/>
  <circle cx="87.7" cy="127.9" r="9.0" fill="#ffffff"/>
  <circle cx="213.3" cy="127.9" r="7.0" fill="#ffffff"/>
  <circle cx="260.4" cy="132.8" r="9.3" fill="#ffffff"/>
  <circle cx="36.6" cy="133.8" r="8.8" fill="#ffffff"/>
  <circle cx="68.1" cy="140.7" r="9.0" fill="#ffffff"/>
  <circle cx="229.0" cy="141.7" r="6.7" fill="#ffffff"/>
  <circle cx="18.0" cy="146.6" r="9.2" fill="#ffffff"/>
  <circle cx="282.0" cy="152.5" r="9.7" fill="#ffffff"/>
  <circle cx="247.7" cy="156.4" r="8.7" fill="#ffffff"/>
  <circle cx="81.8" cy="157.4" r="8.9" fill="#ffffff"/>
  <circle cx="48.4" cy="158.3" r="9.5" fill="#ffffff"/>
  <circle cx="215.3" cy="163.2" r="7.0" fill="#ffffff"/>
  <circle cx="98.5" cy="168.2" r="7.4" fill="#ffffff"/>
  <circle cx="232.9" cy="173.1" r="7.0" fill="#ffffff"/>
  <circle cx="62.2" cy="175.0" r="7.4" fill="#ffffff"/>
  <circle cx="261.4" cy="178.0" r="10.4" fill="#ffffff"/>
  <circle cx="216.2" cy="179.9" r="8.6" fill="#ffffff"/>
  <circle cx="25.9" cy="182.9" r="9.8" fill="#ffffff"/>
  <circle cx="75.9" cy="182.9" r="9.2" fill="#ffffff"/>
  <circle cx="97.5" cy="190.7" r="8.9" fill="#ffffff"/>
  <circle cx="115.2" cy="192.7" r="5.5" fill="#ffffff"/>
  <circle cx="197.6" cy="192.7" r="7.3" fill="#ffffff"/>
  <circle cx="242.7" cy="193.7" r="8.6" fill="#ffffff"/>
  <circle cx="48.4" cy="195.6" r="8.7" fill="#ffffff"/>
  <circle cx="273.2" cy="197.6" r="9.5" fill="#ffffff"/>
  <circle cx="220.2" cy="203.5" r="9.2" fill="#ffffff"/>
  <circle cx="124.0" cy="206.4" r="8.6" fill="#ffffff"/>
  <circle cx="193.7" cy="206.4" r="8.2" fill="#ffffff"/>
  <circle cx="160.3" cy="211.3" r="7.8" fill="#ffffff"/>
  <circle cx="73.0" cy="212.3" r="9.8" fill="#ffffff"/>
  <circle cx="97.5" cy="217.2" r="9.3" fill="#ffffff"/>
  <circle cx="245.7" cy="218.2" r="10.4" fill="#ffffff"/>
  <circle cx="42.5" cy="224.1" r="8.5" fill="#ffffff"/>
  <circle cx="145.6" cy="225.1" r="7.8" fill="#ffffff"/>
  <circle cx="183.9" cy="227.0" r="9.2" fill="#ffffff"/>
  <circle cx="213.3" cy="230.0" r="9.7" fill="#ffffff"/>
  <circle cx="129.9" cy="235.9" r="8.7" fill="#ffffff"/>
  <circle cx="103.4" cy="244.7" r="9.8" fill="#ffffff"/>
  <circle cx="73.0" cy="245.7" r="10.8" fill="#ffffff"/>
  <circle cx="167.2" cy="248.6" r="9.5" fill="#ffffff"/>
  <circle cx="234.9" cy="248.6" r="9.3" fill="#ffffff"/>
  <circle cx="201.5" cy="253.5" r="10.4" fill="#ffffff"/>
  <circle cx="118.1" cy="272.2" r="9.5" fill="#ffffff"/>
  <circle cx="147.5" cy="275.1" r="10.8" fill="#ffffff"/>
  <circle cx="179.9" cy="275.1" r="9.7" fill="#ffffff"/>
</svg>