<svg xmlns="http://www.w3.org/2000/svg" viewBox="0 0 80 80" width="80" height="80">
  <circle cx="40" cy="40" r="40" fill="#1a2f4a"/>
  <!-- hair -->
  <ellipse cx="40" cy="24" rx="16" ry="12" fill="#1a1a2e"/>
  <path d="M24 24 Q22 36 22 44 Q24 40 26 38 L26 30Z" fill="#1a1a2e"/>
  <path d="M56 24 Q58 36 58 44 Q56 40 54 38 L54 30Z" fill="#1a1a2e"/>
  <!-- face -->
  <ellipse cx="40" cy="34" rx="13" ry="14" fill="#c4845a"/>
  <!-- eyes -->
  <ellipse cx="35.5" cy="31" rx="1.8" ry="2" fill="#2c1810"/>
  <ellipse cx="44.5" cy="31" rx="1.8" ry="2" fill="#2c1810"/>
  <!-- smile -->
  <path d="M35 38 Q40 43 45 38" fill="none" stroke="#9a5c35" stroke-width="1.5" stroke-linecap="round"/>
  <!-- body / blazer -->
  <path d="M18 66 Q18 54 40 52 Q62 54 62 66 L80 80 L0 80Z" fill="#c0392b"/>
  <!-- collar -->
  <path d="M35 52 L40 59 L45 52" fill="white"/>
</svg>
